<svg width="480" height="480" viewBox="0 0 480 480" fill="none" xmlns="http://www.w3.org/2000/svg">
<rect width="480" height="480" fill="#BEF395"/>
<path fill-rule="evenodd" clip-rule="evenodd" d="M92 239.893C92 192.354 112.768 149.645 145.743 120.37C145.82 120.293 145.929 120.2 146.043 120.105C152.6 114.312 159.638 109.049 167.088 104.384L167.301 104.241C167.428 104.161 167.553 104.081 167.677 104.001C167.994 103.798 168.306 103.599 168.629 103.411C168.558 103.459 168.487 103.506 168.416 103.553L168.738 103.36C168.725 103.369 168.713 103.378 168.701 103.387L168.697 103.39C168.963 103.215 169.245 103.042 169.507 102.889C169.554 102.889 169.602 102.842 169.602 102.842L169.744 102.771C169.844 102.711 169.945 102.649 170.048 102.587C170.312 102.426 170.585 102.26 170.859 102.107C171.357 101.798 171.879 101.49 172.4 101.182C172.336 101.216 172.273 101.25 172.211 101.286C173.026 100.803 173.852 100.334 174.677 99.877C175.673 99.3315 176.693 98.7858 177.713 98.2403C177.744 98.2198 177.779 98.2038 177.813 98.1883C177.857 98.168 177.899 98.1487 177.926 98.1218C178.4 97.873 178.874 97.6301 179.348 97.3872C179.823 97.1438 180.298 96.9005 180.772 96.6511C181.668 96.2031 182.564 95.7786 183.46 95.3541L183.476 95.3465C183.487 95.3409 183.5 95.334 183.513 95.3267C183.556 95.3031 183.606 95.2754 183.642 95.2754C184.472 94.8722 185.302 94.4926 186.132 94.1131C186.168 94.0894 186.209 94.0716 186.251 94.0538C186.292 94.0361 186.334 94.0183 186.37 93.9946C186.621 93.8847 186.872 93.7722 187.123 93.6597L187.124 93.6593C187.631 93.4319 188.139 93.2045 188.646 92.9983C189.666 92.5476 190.686 92.1207 191.729 91.6937C192.027 91.5767 192.327 91.4562 192.63 91.3349L192.631 91.3345C193.125 91.1364 193.625 90.9361 194.125 90.745C194.244 90.6738 194.386 90.6264 194.528 90.579C195.278 90.3166 196.013 90.0394 196.756 89.7591L196.759 89.758C196.955 89.6839 197.152 89.6096 197.35 89.5353H197.398C197.561 89.4766 197.724 89.4178 197.887 89.3592C198.643 89.0865 199.392 88.8166 200.173 88.5628C201.098 88.2307 202.07 87.8986 203.043 87.614C203.849 87.3293 204.703 87.0684 205.533 86.8312C205.983 86.6889 206.458 86.5466 206.908 86.428C207.193 86.3331 207.43 86.262 207.691 86.1908C207.738 86.1434 207.762 86.1434 207.809 86.1434C207.929 86.1196 208.023 86.0959 208.142 86.0485L208.64 85.9062C208.96 85.8231 209.286 85.7283 209.612 85.6334C209.938 85.5385 210.264 85.4436 210.584 85.3606C211.217 85.1829 211.865 85.0215 212.502 84.863C212.63 84.8311 212.758 84.7994 212.885 84.7676C212.932 84.7676 213.075 84.7202 213.075 84.7202H213.17L214.023 84.5067C214.063 84.5067 214.102 84.4923 214.137 84.4794C214.166 84.4689 214.192 84.4593 214.213 84.4593C214.379 84.3881 214.569 84.3407 214.735 84.3407C214.995 84.2607 215.271 84.1976 215.536 84.1372L215.598 84.1231C215.627 84.1166 215.655 84.11 215.684 84.1035C215.702 84.0981 215.721 84.0928 215.739 84.0875C215.882 84.046 216.01 84.0086 216.158 84.0086C216.217 83.9848 216.276 83.973 216.336 83.9611C216.395 83.9493 216.455 83.9374 216.514 83.9137C216.763 83.8544 217.012 83.801 217.261 83.7477C217.51 83.6943 217.759 83.6409 218.008 83.5817H218.055C218.102 83.5342 218.269 83.5342 218.269 83.5342C218.648 83.4393 219.051 83.3445 219.431 83.2733H219.597C219.905 83.2021 220.238 83.131 220.546 83.0835C220.878 83.0124 221.233 82.9412 221.589 82.8938C221.651 82.8691 221.719 82.8573 221.79 82.8449C221.856 82.8335 221.924 82.8217 221.993 82.7989C222.337 82.717 222.669 82.6577 223.006 82.5975C223.157 82.5706 223.309 82.5436 223.463 82.5143L224.174 82.372C224.23 82.364 224.285 82.3535 224.34 82.343C224.451 82.3219 224.561 82.3008 224.672 82.3008C224.864 82.2751 225.05 82.2426 225.232 82.2106C225.387 82.1834 225.54 82.1565 225.692 82.1348C226.143 82.0636 226.593 81.9924 227.021 81.945C227.518 81.8501 228.016 81.7552 228.515 81.7078C228.861 81.6519 229.213 81.6013 229.563 81.5509C229.954 81.4945 230.344 81.4384 230.72 81.3757C230.994 81.3509 231.254 81.3195 231.512 81.2884C231.746 81.2602 231.977 81.2323 232.215 81.2097C232.902 81.1148 233.566 81.0437 234.254 80.9725H234.325C234.766 80.9064 235.247 80.8608 235.713 80.8166L235.82 80.8065H235.985C236.095 80.8065 236.199 80.7939 236.299 80.7817C236.394 80.7702 236.486 80.759 236.578 80.759C238.665 80.5693 240.753 80.4032 242.84 80.2846C243.017 80.2846 243.195 80.2728 243.373 80.2609C243.551 80.2491 243.729 80.2372 243.906 80.2372C244.07 80.2372 244.239 80.2257 244.411 80.2141C244.589 80.202 244.77 80.1898 244.95 80.1898C245.353 80.1423 245.781 80.1423 246.184 80.1423C246.61 80.0949 247.037 80.0949 247.465 80.0949C248.01 80.0474 248.531 80.0474 249.053 80.0474C250.049 80 251.022 80 251.994 80H253.915C254.295 80.0474 254.627 80.0474 255.006 80.0474H256.453C256.735 80.0474 257.016 80.059 257.3 80.0708C257.591 80.0828 257.885 80.0949 258.185 80.0949H258.35C258.613 80.1071 258.877 80.1193 259.141 80.1315C259.902 80.1667 260.664 80.202 261.386 80.2372C261.496 80.2372 261.6 80.2498 261.7 80.262C261.795 80.2735 261.887 80.2846 261.979 80.2846H262.264C263.616 80.3795 264.968 80.4744 266.32 80.593H266.533C267.315 80.6404 268.051 80.7116 268.833 80.8302H269.07L269.28 80.8522C270.114 80.9399 270.964 81.0291 271.774 81.1385C272.588 81.2274 273.412 81.344 274.227 81.4594C274.718 81.5289 275.206 81.598 275.687 81.6604C275.743 81.6683 275.798 81.6788 275.853 81.6894C275.964 81.7104 276.075 81.7315 276.185 81.7315C276.236 81.7388 276.282 81.7438 276.327 81.7487C276.428 81.7597 276.521 81.7697 276.637 81.8027C311.571 87.187 342.782 103.909 366.31 127.961C366.339 127.99 366.366 128.018 366.39 128.045C366.401 128.057 366.412 128.068 366.423 128.079C366.483 128.145 366.534 128.2 366.594 128.246C381.489 143.568 384.192 167.051 373.52 185.575L370.507 190.818L313.445 289.823L313.137 290.393L312.519 291.483L309.698 296.393C309.65 296.441 309.603 296.512 309.555 296.583C309.489 296.715 309.383 296.867 309.235 297.078L309.2 297.128C308.891 297.674 308.488 298.196 307.919 298.812C304.836 302.466 300.116 304.577 295.254 304.387C292.787 304.316 290.369 303.675 288.21 302.513L287.759 302.299L286.715 301.659C283.989 300.093 281.783 297.935 280.218 295.183L258.872 258.158L251.947 270.112L237.48 295.183C237.456 295.278 237.314 295.42 237.314 295.42V295.468L237.266 295.516V295.564C237.228 295.614 237.192 295.662 237.157 295.708C237.06 295.833 236.973 295.946 236.886 296.085L236.72 296.37C236.61 296.517 236.502 296.669 236.395 296.821L236.394 296.821C236.225 297.06 236.055 297.3 235.867 297.532C235.488 297.983 235.084 298.409 234.61 298.86C234.278 299.216 233.875 299.596 233.471 299.904C232.997 300.354 232.404 300.734 231.834 301.066L231.076 301.635L230.602 301.825C230.032 302.133 229.416 302.419 228.586 302.75C228.374 302.843 228.147 302.928 227.918 303.014L227.917 303.015C227.736 303.083 227.554 303.151 227.376 303.225C227.021 303.319 226.664 303.414 226.19 303.485L225.882 303.556H225.763C225.716 303.58 225.574 303.628 225.574 303.628H225.455C225.408 303.636 225.36 303.641 225.313 303.646C225.218 303.657 225.123 303.667 225.028 303.699L224.966 303.712C224.657 303.778 224.367 303.841 224.056 303.841H220.688C220.441 303.823 220.208 303.78 219.939 303.729L219.938 303.729C219.845 303.712 219.748 303.693 219.644 303.675L219.478 303.628L219.265 303.58H219.099C219.051 303.533 218.98 303.533 218.933 303.533C218.85 303.509 218.767 303.497 218.684 303.485C218.601 303.474 218.518 303.462 218.435 303.438C218.079 303.367 217.723 303.296 217.368 303.201C217.181 303.113 216.995 303.041 216.787 302.96C216.546 302.866 216.276 302.761 215.944 302.608H215.85C215.826 302.608 215.778 302.561 215.778 302.561L215.447 302.466C215.272 302.378 215.089 302.295 214.909 302.212L214.908 302.212C214.647 302.092 214.39 301.975 214.166 301.849L213.407 301.469C213.241 301.327 213.075 301.209 212.908 301.09C212.316 300.758 211.794 300.378 211.272 299.928C211.098 299.801 210.934 299.642 210.767 299.48C210.726 299.441 210.686 299.402 210.645 299.363C210.602 299.322 210.558 299.281 210.513 299.24C210.395 299.122 210.276 299.003 210.134 298.883L210.087 298.836C210.063 298.789 209.992 298.718 209.992 298.718L209.826 298.552C209.729 298.439 209.627 298.326 209.523 298.212C209.321 297.989 209.112 297.759 208.924 297.508C208.637 297.22 208.411 296.891 208.171 296.541L208.118 296.464C208.082 296.404 208.04 296.344 207.997 296.283C207.956 296.225 207.916 296.167 207.88 296.109L207.833 296.061C207.786 296.014 207.738 295.967 207.738 295.919C207.667 295.801 207.596 295.682 207.501 295.587C207.406 295.468 207.217 295.231 207.217 295.231L151.743 199.119C159.878 194.613 169.222 193.427 178.211 195.822C178.356 195.851 178.484 195.889 178.604 195.926C178.68 195.948 178.754 195.971 178.828 195.989C178.907 196.009 178.99 196.033 179.075 196.057C179.195 196.091 179.32 196.127 179.444 196.155C188.077 198.811 195.263 204.504 199.746 212.355L222.348 251.516L243.74 214.537C243.754 214.517 243.767 214.497 243.78 214.477C243.857 214.361 243.923 214.259 244.026 214.158C244.062 214.109 244.098 214.063 244.131 214.019L244.132 214.019C244.229 213.891 244.317 213.777 244.405 213.636C244.713 213.138 245.021 212.711 245.401 212.26C245.757 211.739 246.231 211.287 246.682 210.884C247.013 210.505 247.322 210.22 247.702 209.889L247.749 209.841C248.271 209.39 248.84 209.01 249.409 208.631C249.599 208.513 249.907 208.276 249.907 208.276L250.761 207.777C251.022 207.658 251.33 207.516 251.591 207.35C251.608 207.342 251.628 207.336 251.649 207.33C251.686 207.32 251.727 207.309 251.757 207.279C251.781 207.279 251.81 207.267 251.84 207.255C251.87 207.243 251.899 207.232 251.923 207.232C253.678 206.473 255.504 206.045 257.401 205.856L258.327 205.784C260.224 205.642 262.145 205.974 264.137 206.615L264.588 206.781C266.675 207.492 268.596 208.607 270.256 210.055L270.636 210.339C271.49 211.121 272.201 211.905 272.888 212.829C273.174 213.221 273.459 213.653 273.744 214.085L273.746 214.088C273.84 214.23 273.933 214.372 274.027 214.513L288.494 239.585L295.348 251.421L295.396 251.469L341.762 170.941C346.672 162.425 345.225 151.728 338.323 144.897C338.276 144.802 338.181 144.731 338.11 144.683C337.873 144.446 337.636 144.209 337.375 143.995C337.236 143.879 337.103 143.763 336.969 143.647C336.83 143.526 336.69 143.405 336.545 143.284C336.317 143.072 336.078 142.871 335.843 142.674C335.736 142.584 335.629 142.495 335.525 142.406C313.018 122.956 283.68 111.239 251.615 111.239C180.559 111.239 122.927 169.019 122.927 240.059C122.927 311.1 180.535 368.714 251.591 368.714C291.388 368.714 326.987 350.64 350.586 322.224C350.704 322.153 350.847 322.082 350.989 322.034C356.04 319.852 361.946 320.137 366.618 323.434C374.564 329.055 375.654 340.132 369.417 347.225C368.385 348.39 367.29 349.577 366.212 350.746L366.212 350.746L366.026 350.949C363.795 353.32 361.472 355.669 359.1 357.898C358.846 358.129 358.594 358.361 358.341 358.591L358.34 358.592C357.27 359.57 356.204 360.544 355.091 361.504C348.997 366.911 342.522 371.774 335.81 376.067L335.857 376.162C334.766 376.85 333.652 377.514 332.513 378.155C331.256 378.914 329.952 379.673 328.647 380.384C326.798 381.452 324.948 382.448 323.074 383.397C323.06 383.402 323.048 383.407 323.038 383.413C323.022 383.421 323.009 383.431 322.998 383.439C322.975 383.455 322.957 383.468 322.932 383.468C321.01 384.464 319.065 385.389 317.121 386.29C316.718 386.456 316.006 386.741 315.105 387.073C299.499 393.786 282.589 398.103 264.849 399.502L264.846 399.503C264.395 399.55 263.946 399.597 263.497 399.597H263.118C262.999 399.644 262.857 399.644 262.714 399.644C262.288 399.692 261.861 399.692 261.434 399.692H261.434C261.077 399.739 260.746 399.739 260.366 399.739C259.999 399.763 259.631 399.781 259.264 399.798C258.896 399.816 258.528 399.834 258.161 399.858C257.911 399.858 257.656 399.87 257.401 399.882C257.146 399.893 256.892 399.905 256.643 399.905C256.098 399.953 255.575 399.953 255.03 399.953C254.272 400 253.489 400 252.707 400H251.97C251.434 400 250.892 399.988 250.352 399.976C249.818 399.964 249.288 399.953 248.768 399.953C248.318 399.905 247.844 399.905 247.394 399.905C246.824 399.858 246.303 399.858 245.781 399.858H245.781C245.423 399.835 245.077 399.817 244.733 399.8C244.371 399.782 244.011 399.764 243.646 399.739C243.29 399.739 242.934 399.739 242.603 399.692H242.413C242.196 399.692 241.979 399.68 241.766 399.668C241.558 399.656 241.354 399.644 241.156 399.644C241.037 399.597 240.895 399.597 240.753 399.597C240.634 399.55 240.491 399.55 240.373 399.55C240.124 399.526 239.863 399.508 239.602 399.49C239.341 399.473 239.081 399.455 238.832 399.431C214.521 397.462 191.73 390.039 171.689 378.392L171.641 378.345C169.554 377.182 167.586 376.043 165.712 374.905L110.049 393.454C102.53 395.921 95.2018 389.16 97.0517 381.476L112.468 318.334C102.222 300.141 95.4389 279.718 92.9961 257.992C92.971 257.702 92.9391 257.413 92.9077 257.127C92.8799 256.874 92.8524 256.624 92.8301 256.379C92.7649 255.878 92.7196 255.378 92.6759 254.897L92.6641 254.766C92.6548 254.658 92.6456 254.55 92.6363 254.444C92.5748 253.731 92.5156 253.045 92.4743 252.322C92.4032 251.516 92.3558 250.709 92.3083 249.879C92.2852 249.498 92.2678 249.128 92.2504 248.762C92.2322 248.375 92.2141 247.992 92.1897 247.603C92.1658 247.279 92.1539 246.95 92.142 246.618C92.1302 246.292 92.1184 245.963 92.0949 245.633V244.543C92.0474 243.83 92.0474 243.143 92.0474 242.432C92 241.601 92 240.748 92 239.893ZM145.41 120.679L145.616 120.494C145.548 120.558 145.468 120.633 145.41 120.679Z" fill="#1A4233"/>
</svg>
